<svg xmlns="http://www.w3.org/2000/svg" width="1024" height="1024"><path d="M336 0C150.72 0 0 150.72 0 336s150.72 336 336 336c87.2 0 166.496-33.664 226.272-88.32.704 1.248 1.344 2.56 2.432 3.648l68.832 68.832c-5.76 9.728-9.024 20.736-9.024 32.352 0 17.088 6.656 33.152 18.752 45.248l271.52 271.52C926.848 1017.344 942.912 1024 960 1024s33.152-6.656 45.248-18.752S1024 977.088 1024 960s-6.656-33.152-18.752-45.248l-271.52-271.52c-20.288-20.288-53.088-23.328-77.44-9.568l-68.96-68.96c-1.088-1.088-2.368-1.728-3.648-2.432C638.336 502.496 672 423.2 672 336 672 150.72 521.28 0 336 0zm375.104 665.856 271.52 271.52C988.672 943.424 992 951.456 992 960s-3.328 16.576-9.376 22.624c-12.128 12.064-33.12 12.064-45.248 0l-271.52-271.52c-6.016-6.048-9.376-14.08-9.376-22.624s3.328-16.576 9.376-22.624c6.048-6.016 14.08-9.376 22.624-9.376s16.544 3.328 22.624 9.376zM336 640C168.384 640 32 503.616 32 336S168.384 32 336 32s304 136.384 304 304-136.384 304-304 304zm0-544C203.648 96 96 203.648 96 336s107.648 240 240 240 240-107.648 240-240S468.352 96 336 96zm0 448c-114.688 0-208-93.312-208-208s93.312-208 208-208 208 93.312 208 208-93.312 208-208 208z"/></svg>